<svg width="1600" height="900" viewBox="0 0 1600 900" fill="none" xmlns="http://www.w3.org/2000/svg">
  <defs>
    <linearGradient id="bg" x1="0" y1="0" x2="1" y2="1">
      <stop offset="0%" stop-color="#5aa8ff"/>
      <stop offset="38%" stop-color="#08203f"/>
      <stop offset="100%" stop-color="#041226"/>
    </linearGradient>
    <linearGradient id="band" x1="260" y1="220" x2="1360" y2="700" gradientUnits="userSpaceOnUse">
      <stop offset="0%" stop-color="#72c6ff"/>
      <stop offset="42%" stop-color="#1a7cff"/>
      <stop offset="100%" stop-color="#0a2f87"/>
    </linearGradient>
    <linearGradient id="bandShade" x1="300" y1="260" x2="1300" y2="670" gradientUnits="userSpaceOnUse">
      <stop offset="0%" stop-color="#0b4cc5"/>
      <stop offset="50%" stop-color="#041f66"/>
      <stop offset="100%" stop-color="#021142"/>
    </linearGradient>
    <linearGradient id="shine" x1="760" y1="250" x2="930" y2="430" gradientUnits="userSpaceOnUse">
      <stop offset="0%" stop-color="#c6f0ff" stop-opacity="1"/>
      <stop offset="100%" stop-color="#c6f0ff" stop-opacity="0"/>
    </linearGradient>
    <filter id="glow" x="-200" y="-200" width="2000" height="1300" filterUnits="userSpaceOnUse">
      <feGaussianBlur stdDeviation="36"/>
    </filter>
  </defs>

  <rect width="1600" height="900" fill="url(#bg)"/>
  <rect width="1600" height="900" fill="url(#bg)" opacity="0.55"/>

  <g opacity="0.35" filter="url(#glow)">
    <ellipse cx="410" cy="380" rx="250" ry="250" fill="#63bfff"/>
    <ellipse cx="1180" cy="400" rx="270" ry="270" fill="#58a9ff"/>
    <ellipse cx="810" cy="360" rx="180" ry="180" fill="#9dd8ff"/>
  </g>

  <path
    d="M230 450C230 320 340 230 500 230C635 230 740 300 830 390C920 300 1025 230 1160 230C1320 230 1430 320 1430 450C1430 580 1320 670 1160 670C1025 670 920 600 830 510C740 600 635 670 500 670C340 670 230 580 230 450Z"
    fill="url(#bandShade)"
  />

  <path
    d="M250 450C250 334 346 250 500 250C635 250 738 324 830 430C922 324 1025 250 1160 250C1314 250 1410 334 1410 450C1410 566 1314 650 1160 650C1025 650 922 576 830 470C738 576 635 650 500 650C346 650 250 566 250 450Z"
    fill="url(#band)"
  />

  <path
    d="M305 450C305 363 377 305 500 305C610 305 695 364 772 450C695 536 610 595 500 595C377 595 305 537 305 450Z"
    fill="#0e3b9e"
    opacity="0.65"
  />
  <path
    d="M888 450C965 364 1050 305 1160 305C1283 305 1355 363 1355 450C1355 537 1283 595 1160 595C1050 595 965 536 888 450Z"
    fill="#0d3a98"
    opacity="0.7"
  />

  <path
    d="M250 450C250 334 346 250 500 250C635 250 738 324 830 430C922 324 1025 250 1160 250C1314 250 1410 334 1410 450"
    stroke="#8ad7ff"
    stroke-width="8"
    stroke-linecap="round"
    opacity="0.95"
  />
  <path
    d="M250 450C250 566 346 650 500 650C635 650 738 576 830 470C922 576 1025 650 1160 650C1314 650 1410 566 1410 450"
    stroke="#6dbbff"
    stroke-width="6"
    stroke-linecap="round"
    opacity="0.7"
  />

  <ellipse cx="845" cy="430" rx="96" ry="80" fill="url(#shine)" opacity="0.95"/>
</svg>
